<?xml version="1.0" encoding="UTF-8" standalone="no"?>
<!-- Created with Inkscape (http://www.inkscape.org/) -->

<svg
   version="1.1"
   id="svg1"
   width="5000"
   height="5000"
   viewBox="0 0 5000 5000"
   xmlns="http://www.w3.org/2000/svg"
   xmlns:svg="http://www.w3.org/2000/svg">
  <defs
     id="defs1" />
  <g
     id="g1">
    <path
       style="fill:#000000"
       d="m 1804,4366.4867 c -16.8881,-2.324 -34.9964,-7.1603 -50.3099,-13.4367 -12.8252,-5.2566 -93.8886,-43.1157 -101.1901,-47.2589 -38.0862,-21.612 -67.0442,-52.3297 -86.0613,-91.2911 -15.8354,-32.4427 -22.0722,-61.6387 -21.1485,-99 0.656,-26.5282 4.0828,-45.2336 12.3119,-67.2046 3.4167,-9.1223 11.0094,-25.8254 37.4674,-82.4239 3.9522,-8.4543 9.7816,-20.9965 12.9543,-27.8715 3.1727,-6.875 7.566,-16.325 9.7628,-21 2.1968,-4.675 14.6742,-31.45 27.7274,-59.5 13.0533,-28.05 25.2024,-54.15 26.9982,-58 1.7957,-3.85 6.1918,-13.3 9.7691,-21 3.5773,-7.7 8.3988,-18.05 10.7144,-23 6.5977,-14.1034 10.9761,-23.4907 13.9924,-30 3.2414,-6.9948 14.8082,-31.8708 19.5291,-42 1.7944,-3.85 13.8313,-29.725 26.7488,-57.5 12.9175,-27.775 37.2206,-79.975 54.0068,-116 28.0648,-60.2298 95.1543,-204.2727 112.2484,-241 3.9678,-8.525 11.4963,-24.725 16.73,-36 5.2337,-11.275 18.7355,-40.3 30.004,-64.5 11.2685,-24.2 35.7811,-76.85 54.4725,-117 18.6913,-40.15 40.64,-87.2965 48.7749,-104.77 8.1349,-17.4735 14.6122,-31.9073 14.394,-32.075 -0.2181,-0.1677 -7.1466,-5.4429 -15.3966,-11.7227 -39.8867,-30.3614 -74.1736,-60.492 -113.0784,-99.3711 -28.3581,-28.3394 -45.8046,-47.3767 -69.9572,-76.336 -91.0361,-109.1537 -160.9114,-233.7008 -207.4288,-369.7252 -30.1625,-88.2001 -50.6762,-186.4255 -58.4762,-280 -5.099,-61.1719 -5.1009,-131.7598 -0.01,-193.5 22.783,-276.0467 146.5675,-540.1151 344.0796,-734.0219 149.17,-146.4472 334.6467,-250.10967 537.7413,-300.54232 69.3012,-17.20893 140.0342,-27.8763 216.125,-32.59422 25.7795,-1.59842 100.2205,-1.59842 126,0 143.6438,8.90645 271.8812,39.8014 402,96.84984 22.0436,9.66467 70.4794,33.6933 91.5,45.39248 151.3785,84.25092 277.2752,196.29212 378.0191,336.41612 67.7286,94.2032 124.1794,205.8919 160.3502,317.2549 73.2246,225.4448 76.7343,464.9794 10.1211,690.7451 -38.5445,130.6348 -100.9865,256.1118 -181.8865,365.5 -124.0027,167.6691 -292.6143,299.6846 -486.5621,380.9567 -116.7853,48.9378 -235.2482,77.0982 -369.0418,87.7266 -28.35,2.2521 -126.5671,2.5918 -153,0.5292 -48.3213,-3.7707 -78.3404,-7.3102 -117,-13.7953 -14.575,-2.445 -27.175,-4.6427 -28,-4.8839 -1.1268,-0.3295 -6.5923,10.5581 -21.969,43.764 -11.2579,24.3115 -23.2316,50.0527 -26.6081,57.2027 -7.8164,16.5517 -11.3836,24.2185 -17.9135,38.5 -2.8919,6.325 -19.5418,42.1 -36.9997,79.5 -17.458,37.4 -33.094,70.925 -34.7468,74.5 -1.6528,3.575 -4.4692,9.65 -6.2587,13.5 -1.7894,3.85 -7.5333,16.225 -12.7642,27.5 -5.2309,11.275 -12.0373,25.8337 -15.1253,32.3527 -3.0881,6.519 -5.6147,11.9754 -5.6147,12.1253 0,0.15 -2.4186,5.3912 -5.3746,11.6473 -2.9561,6.2561 -17.0917,36.5747 -31.4124,67.3747 -14.3208,30.8 -27.8273,59.825 -30.0144,64.5 -4.3695,9.3399 -22.433,48.1249 -27.9439,60 -1.9144,4.125 -14.0643,30.225 -27,58 -12.9356,27.775 -24.9864,53.65 -26.7794,57.5 -30.8263,66.1902 -74.7174,160.4509 -85.2112,183 -7.4228,15.95 -15.0752,32.375 -17.0054,36.5 -1.9301,4.125 -6.1063,13.125 -9.2802,20 -3.174,6.875 -7.5649,16.325 -9.7575,21 -6.7867,14.4704 -44.3472,95.1594 -47.2479,101.5 -1.5097,3.3 -4.7594,10.275 -7.2214,15.5 -2.4621,5.225 -8.861,18.95 -14.2198,30.5 -13.0083,28.0373 -17.6454,36.9143 -25.1325,48.1127 -20.6659,30.9097 -47.0699,54.3608 -80.2415,71.2678 -22.336,11.3843 -45.1902,18.4933 -69.4591,21.6059 -14.2388,1.8262 -41.4284,1.8263 -54.6988,3e-4 z M 2816,2793.9813 c 148.2166,-9.0678 287.7437,-56.0963 410.4582,-138.3477 89.074,-59.7032 166.8915,-138.0725 226.0308,-227.6336 77.0334,-116.66 122.0172,-247.0812 134.1708,-389 2.4767,-28.9206 2.4719,-97.1776 -0.01,-126 -12.5636,-145.9678 -57.8199,-276.298 -136.9259,-394.3221 -66.1821,-98.7421 -155.1266,-183.2355 -256.2251,-243.4027 -142.2382,-84.6508 -302.8679,-123.5795 -467,-113.1776 -143.3833,9.087 -283.8119,56.9816 -404.5,137.9589 -45.8672,30.7752 -80.4255,59.3112 -121.5888,100.4 -42.1541,42.0779 -71.6981,77.9688 -102.9309,125.0435 -107.5138,162.0469 -154.0455,352.8553 -132.9072,545 15.7854,143.4872 70.7001,282.9197 157.1572,399.0339 25.2825,33.955 44.0971,55.5016 78.1715,89.5225 23.1237,23.0874 36.5802,35.4101 60.0982,55.0344 9.0794,7.5762 37.6521,28.9225 51,38.1015 121.3591,83.4552 263.2319,132.4277 410.5,141.699 19.0791,1.2012 75.4599,1.2548 94.5,0.09 z"
       id="path1" />
  </g>
</svg>
