<?xml version="1.0" encoding="UTF-8" standalone="no"?>
<!-- Created with Inkscape (http://www.inkscape.org/) -->

<svg
   version="1.1"
   id="svg1"
   width="546.1333"
   height="546.1333"
   viewBox="0 0 546.1333 546.1333"
   xmlns="http://www.w3.org/2000/svg"
   xmlns:svg="http://www.w3.org/2000/svg">
  <defs
     id="defs1" />
  <g
     id="g1">
    <path
       style="fill:#b3a3ff;stroke-width:4"
       d="m 107.97341,543.99549 c -1.92129,-1.17141 -3.96129,-3.36086 -4.53334,-4.86545 -1.51703,-3.9901 -1.41239,-484.417873 0.10734,-492.800806 3.93089,-21.683062 23.49876,-41.2509294 45.18182,-45.1818169 8.7978,-1.59493881 239.87704,-1.59493881 248.67484,0 21.61818,3.9191249 41.26269,23.5636379 45.18182,45.1818169 1.76924,9.759251 1.57069,489.838876 -0.20403,493.345676 -2.10099,4.15149 -7.58597,6.81602 -12.27515,5.96311 -3.50451,-0.63743 -13.00533,-9.74368 -80.51026,-77.16671 l -76.53687,-76.44399 -75.99646,75.93227 c -42.28648,42.25076 -77.32841,76.42939 -78.99923,77.05299 -4.26235,1.59083 -6.12025,1.40356 -10.09048,-1.01709 z M 270.13332,364.54691 c 1.61333,-0.28477 4.25333,-0.28712 5.86666,-0.005 2.14347,0.37452 22.10953,19.64953 74.14778,71.58139 l 71.21444,71.06886 -0.28111,-228.79597 -0.28112,-228.795963 -2.77452,-5.915339 c -3.95989,-8.442587 -8.64372,-13.266639 -16.76097,-17.262746 l -7.08631,-3.48858 H 273.06665 151.95513 l -7.08631,3.48858 c -8.11724,3.996107 -12.80108,8.820159 -16.76097,17.262746 l -2.77452,5.915339 -0.28111,228.788493 -0.28111,228.7885 71.21444,-71.05616 c 51.93801,-51.82258 72.00843,-71.19631 74.14777,-71.57392 z"
       id="path1" />
  </g>
</svg>
