<?xml version="1.0" encoding="UTF-8" standalone="no"?>
<!-- Created with Inkscape (http://www.inkscape.org/) -->

<svg
   version="1.1"
   id="svg1"
   width="512"
   height="512"
   viewBox="0 0 512 512"
   xmlns="http://www.w3.org/2000/svg"
   xmlns:svg="http://www.w3.org/2000/svg">
  <defs
     id="defs1" />
  <g
     id="g1">
    <path
       style="fill:#b3a3ff;stroke-width:3"
       d="M 102.74797,479.5799 C 97.247373,477.60718 92.286454,473.45458 89.740769,468.69207 L 87.5,464.5 87.240586,258.14182 C 87.069311,121.8967 87.323412,50.512656 87.98846,48.042858 89.506549,42.405105 92.991246,37.900123 98.440071,34.531117 L 103.34242,31.5 212.92121,31.190762 C 292.83014,30.965255 323.9892,31.193426 328,32.033459 l 5.5,1.151933 44.27834,44.157304 c 40.78482,40.673334 44.39446,44.546394 45.75,49.088804 1.26971,4.25476 1.47089,27.5149 1.46608,169.5 -0.004,107.16083 -0.35611,165.83047 -1.01045,168.18613 -1.54072,5.54671 -5.03058,10.01649 -10.42421,13.35125 l -4.90251,3.03112 -151.07862,0.21276 c -124.47096,0.1753 -151.73943,-0.0242 -154.83066,-1.13286 z M 407.54545,463.54545 410,461.09091 V 298.10251 135.1141 l -36.25,-0.30705 c -33.12137,-0.28055 -36.55207,-0.46818 -39.75,-2.17402 -4.91719,-2.62293 -7.85269,-5.49764 -10.34732,-10.13303 -2.07221,-3.85048 -2.16416,-5.355 -2.45973,-40.25 L 320.8859,46 H 213.89749 106.90909 L 104.45455,48.454545 102,50.909091 102,256 l 0,205.09091 2.45455,2.45454 L 106.90909,466 H 256 l 149.09091,0 z M 303.48832,414.98709 c -2.58042,-2.85133 -2.35504,-7.86684 0.4558,-10.14292 2.11463,-1.71232 4.73604,-1.84417 36.66666,-1.84417 33.05589,0 34.46676,0.0775 36.38922,2 1.11111,1.11111 2,3.33333 2,5 0,1.66667 -0.88889,3.88889 -2,5 -1.92347,1.92347 -3.33333,2 -36.84501,2 -33.64949,0 -34.90752,-0.0691 -36.66667,-2.01291 z M 135,360 c -1.11111,-1.11111 -2,-3.33333 -2,-5 0,-1.66667 0.88889,-3.88889 2,-5 1.97759,-1.97759 3.33333,-2 121,-2 117.66667,0 119.02241,0.0224 121,2 1.11111,1.11111 2,3.33333 2,5 0,1.66667 -0.88889,3.88889 -2,5 -1.97759,1.97759 -3.33333,2 -121,2 -117.66667,0 -119.02241,-0.0224 -121,-2 z m 0,-55 c -1.11111,-1.11111 -2,-3.33333 -2,-5 0,-1.66667 0.88889,-3.88889 2,-5 1.96135,-1.96135 3.33333,-2 71,-2 67.66667,0 69.03865,0.0387 71,2 1.11111,1.11111 2,3.33333 2,5 0,1.66667 -0.88889,3.88889 -2,5 -1.96135,1.96135 -3.33333,2 -71,2 -67.66667,0 -69.03865,-0.0387 -71,-2 z m 168.48832,-0.0129 c -2.58042,-2.85133 -2.35504,-7.86684 0.4558,-10.14292 2.11463,-1.71232 4.73604,-1.84417 36.66666,-1.84417 33.05589,0 34.46676,0.0775 36.38922,2 1.11111,1.11111 2,3.33333 2,5 0,1.66667 -0.88889,3.88889 -2,5 -1.92347,1.92347 -3.33333,2 -36.84501,2 -33.64949,0 -34.90752,-0.0691 -36.66667,-2.01291 z M 135,250 c -1.11111,-1.11111 -2,-3.33333 -2,-5 0,-1.66667 0.88889,-3.88889 2,-5 1.97759,-1.97759 3.33333,-2 121,-2 117.66667,0 119.02241,0.0224 121,2 1.11111,1.11111 2,3.33333 2,5 0,1.66667 -0.88889,3.88889 -2,5 -1.97759,1.97759 -3.33333,2 -121,2 -117.66667,0 -119.02241,-0.0224 -121,-2 z m 0,-55 c -1.11111,-1.11111 -2,-3.33333 -2,-5 0,-1.66667 0.88889,-3.88889 2,-5 1.92246,-1.92246 3.33333,-2 36.38922,-2 31.93062,0 34.55203,0.13185 36.66666,1.84417 2.81084,2.27608 3.03622,7.29159 0.4558,10.14292 C 206.75253,196.93094 205.4945,197 171.84501,197 138.33333,197 136.92347,196.92347 135,195 Z m 100,0 c -1.11111,-1.11111 -2,-3.33333 -2,-5 0,-1.66667 0.88889,-3.88889 2,-5 1.96135,-1.96135 3.33333,-2 71,-2 67.66667,0 69.03865,0.0386 71,2 1.11111,1.11111 2,3.33333 2,5 0,1.66667 -0.88889,3.88889 -2,5 -1.96135,1.96135 -3.33333,2 -71,2 -67.66667,0 -69.03865,-0.0386 -71,-2 z M 137.39966,133.58582 C 132.5814,131.46692 131.37203,125.62797 135,122 c 1.95066,-1.95066 3.33333,-2 56.04545,-2 l 54.04546,0 2.45454,2.45455 c 3.0951,3.09509 3.10673,5.67556 0.0417,9.23969 l -2.4129,2.80576 -52.3371,0.22462 c -42.38615,0.1819 -52.92657,-0.0346 -55.43744,-1.1388 z M 399,119.74405 C 399,119.60327 384.825,105.31845 367.5,88 L 336,56.511906 v 29.289501 29.289503 l 2.45455,2.45454 2.45454,2.45455 h 29.04546 C 385.92955,120 399,119.88482 399,119.74405 Z"
       id="path1" />
  </g>
</svg>
