<?xml version="1.0" encoding="UTF-8" standalone="no"?>
<!-- Created with Inkscape (http://www.inkscape.org/) -->

<svg
   version="1.1"
   id="svg1"
   width="768"
   height="768"
   viewBox="0 0 768 768"
   xmlns="http://www.w3.org/2000/svg"
   xmlns:svg="http://www.w3.org/2000/svg">
  <defs
     id="defs1" />
  <g
     id="g1">
    <path
       style="fill:#b3a3ff;stroke-width:4"
       d="M 90,696.6501 C 58.202845,689.76431 33.063558,664.28121 26.224314,632.00219 22.935146,616.47838 22.974607,145.35935 26.266382,129.75 32.344589,100.92761 54.304481,76.671439 82.758637,67.350516 L 93.75,63.75 H 186 278.25 l 10.65306,3.897506 c 13.47915,4.931448 25.50077,12.88832 34.73121,22.987896 6.87083,7.517783 11.81995,16.179488 39.4221,68.994658 12.91331,24.70888 17.9329,30.69939 31.19621,37.23041 l 9.92975,4.88953 137.28383,0.75 c 133.74559,0.73067 137.50136,0.82937 145.72365,3.82967 26.96919,9.84101 46.93564,31.5411 53.83217,58.50629 2.88604,11.2843 2.97802,16.97895 2.97802,184.37849 0,116.02145 -0.52639,175.65683 -1.60326,181.63506 -0.88179,4.89527 -4.259,14.43395 -7.50491,21.19707 -10.64761,22.18518 -29.86648,37.61695 -54.78585,43.99025 -11.34619,2.90187 -17.46885,2.9607 -295.97092,2.84392 C 145.59194,698.78072 98.178332,698.42115 90,696.6501 Z m 582.43419,-32.88087 c 10.78923,-2.81023 18.38757,-7.58427 26.20353,-16.46367 12.47585,-14.17332 11.55578,0.53397 12.06177,-192.80556 0.40783,-155.83009 0.2198,-172.61454 -2.02857,-181.07696 -4.04023,-15.20671 -14.138,-27.11987 -28.67316,-33.82808 L 672.75,236.25 537.75,235.5 C 463.5,235.0875 324.94162,234.92158 229.84248,235.13128 L 56.934964,235.51256 57.342482,430.88128 57.75,626.25 l 3.901669,8.31845 c 7.085922,15.10734 18.899568,25.24364 34.242354,29.3805 5.310967,1.43199 70.080737,1.87138 287.415827,1.94981 243.69813,0.0879 281.68511,-0.19185 289.12434,-2.12953 z M 346.14073,199.125 C 344.92836,197.26875 334.99206,178.5375 324.06006,157.5 302.75973,116.50971 297.6208,109.37753 284.25,102.24872 L 276.75,98.25 187.65023,97.829105 C 89.054159,97.363351 91.434942,97.163505 78,107.03326 c -3.7125,2.72733 -8.672499,7.7362 -11.02222,11.13082 -8.06914,11.65743 -9.025258,16.55962 -9.660129,49.52919 -0.322423,16.7438 -0.209479,31.42505 0.250986,32.625 0.724551,1.88815 20.344781,2.18173 145.806803,2.18173 h 144.96959 z"
       id="path1" />
  </g>
</svg>
