<?xml version="1.0" encoding="UTF-8" standalone="no"?>
<!-- Created with Inkscape (http://www.inkscape.org/) -->

<svg
   version="1.1"
   id="svg1"
   width="512"
   height="512"
   viewBox="0 0 512 512"
   xmlns="http://www.w3.org/2000/svg"
   xmlns:svg="http://www.w3.org/2000/svg">
  <defs
     id="defs1" />
  <g
     id="g1">
    <path
       style="fill:#b3a3ff;stroke-width:4"
       d="m 250,495.38353 c -58.901,-5.352 -113.66433,-32.53297 -151.767079,-75.32734 -16.951188,-19.0384 -20.384938,-25.96992 -16.9443,-34.20453 2.010413,-4.8116 7.664875,-8.97938 12.997924,-9.58049 6.680145,-0.75295 10.677545,1.53033 17.289465,9.87559 14.79749,18.67672 29.79246,32.82029 47.12602,44.45024 79.75545,53.51193 191.453,41.66387 260.34503,-27.61549 C 457.98554,363.8241 479.95268,310.84334 479.9918,255.99387 480.07339,141.57279 386.51056,48.01641 272,48.01641 183.13939,48.01641 103.06207,105.5546 75.093791,189.5 71.549783,200.13716 67,217.93061 67,221.15347 c 0,0.64606 3.069478,-1.78868 6.821062,-5.41053 C 81.1119,208.70423 84.79782,207.17669 91.470563,208.4285 98.058251,209.66436 104,217.02073 104,223.94097 c 0,1.72629 -0.86179,4.80828 -1.9151,6.84887 -1.0533,2.04059 -11.965798,13.68125 -24.249996,25.86813 -19.05598,18.90502 -22.890623,22.26219 -26.120273,22.86792 -4.454507,0.83546 -9.193586,0.0455 -12.423516,-2.0708 -1.272388,-0.8337 -10.520581,-13.76465 -20.55154,-28.73545 L 0.50146623,221.5 0.50073312,215.82333 C 0.49950013,206.2761 6.3419159,200.5 16,200.5 c 7.011422,0 9.863655,1.76783 15,9.29707 1.925,2.82181 3.725,5.14544 4,5.16363 0.275,0.0182 1.539595,-4.80303 2.810212,-10.71382 C 56.954561,115.18919 127.44719,43.715376 217,22.562956 c 19.36241,-4.57341 31.96857,-5.962919 54.5,-6.007233 12.25463,-0.0241 24.95624,0.511381 30.5,1.28584 54.45898,7.607882 101.81086,30.894319 139.53749,68.62095 37.69796,37.697967 61.16705,85.436657 68.5988,139.537487 1.67846,12.21862 1.68523,47.70763 0.0115,60 C 500.71427,355.28009 464.00495,415.13843 407,454.19308 c -30.04465,20.58387 -64.36016,33.90617 -101.5,39.4053 -9.69042,1.43481 -46.37108,2.61464 -55.5,1.78515 z M 354,351.34942 c -0.825,-0.33005 -24.3143,-17.6804 -52.19844,-38.55633 -46.51621,-34.82513 -50.82881,-38.3001 -52.27874,-42.12466 -1.39935,-3.69115 -1.54838,-12.89066 -1.30156,-80.34554 0.27501,-75.15908 0.30629,-76.214 2.34053,-78.93821 7.07326,-9.47237 19.2525,-9.738 26.24466,-0.57241 l 2.69355,3.53082 0.5,71.03747 0.5,71.03747 44.97272,34.04099 c 26.23955,19.86137 45.92131,35.45635 47.25,37.43886 4.49617,6.70865 2.36476,16.02057 -4.89823,21.39981 -2.68478,1.98845 -10.92554,3.21148 -13.82449,2.05173 z"
       id="path1" />
  </g>
</svg>
