<?xml version="1.0" encoding="UTF-8" standalone="no"?>
<!-- Created with Inkscape (http://www.inkscape.org/) -->

<svg
   version="1.1"
   id="svg1"
   width="512"
   height="512"
   viewBox="0 0 512 512"
   xmlns="http://www.w3.org/2000/svg"
   xmlns:svg="http://www.w3.org/2000/svg">
  <defs
     id="defs1" />
  <g
     id="g1">
    <path
       style="fill:#b3a3ff"
       d="m 466.0747,457.19986 c -1.11267,-0.93492 -3.99733,-6.6516 -6.41036,-12.70373 C 431.25463,373.2416 384.676,320.96133 333.68841,303.0996 c -28.0935,-9.84158 -60.04275,-10.4062 -90.34652,-1.59666 l -5.19837,1.51121 -0.36813,33.24292 c -0.31708,28.63426 -0.60969,33.86483 -2.1106,37.72876 -3.50512,9.02355 -10.04143,13.04739 -17.8497,10.98852 -9.14684,-2.41182 -2.09967,3.40944 -119.942532,-99.07772 C 72.777465,264.07159 48.91111,243.51167 44.836212,240.20792 36.856312,233.73816 32,226.53926 32,221.17977 c 0,-6.8361 4.650045,-14.13911 13.409737,-21.0603 C 48.759382,197.47285 87.05,164.57697 130.5,127.0175 c 43.45,-37.559463 80.8,-69.118755 83,-70.131756 5.23571,-2.410808 12.14092,-2.402117 16.11349,0.02028 1.71242,1.044202 4.07492,3.884595 5.25,6.311987 C 236.92111,67.468492 237,68.927611 237,102.73613 l 0,35.10468 6.75,0.67951 c 12.73214,1.28171 35.74124,5.50327 49.24177,9.03456 78.90262,20.63832 135.08117,61.77376 164.49154,120.44512 6.99997,13.9644 12.06508,27.70568 16.03431,43.5 5.78613,23.0241 6.94523,33.7583 6.96484,64.5 0.0183,28.63631 -0.6974,37.60164 -5.00088,62.64729 -3.27071,19.0351 -4.93238,22.31229 -9.40688,18.55257 z"
       id="path1" />
  </g>
</svg>
