<?xml version="1.0" encoding="UTF-8" standalone="no"?>
<!-- Created with Inkscape (http://www.inkscape.org/) -->

<svg
   version="1.1"
   id="svg1"
   width="682.66669"
   height="682.66669"
   viewBox="0 0 682.66669 682.66669"
   xmlns="http://www.w3.org/2000/svg"
   xmlns:svg="http://www.w3.org/2000/svg">
  <defs
     id="defs1" />
  <g
     id="g1">
    <path
       style="fill:#b3a3ff;stroke-width:3"
       d="m 192.99457,681.23362 c -12.84001,-3.06334 -24.26694,-11.28826 -31.73444,-22.84192 -9.90631,-15.327 -11.76637,-34.43194 -4.82785,-49.58767 1.7462,-3.81419 29.06329,-51.75077 60.70465,-106.52573 l 57.52974,-99.59083 v -58.61433 c 0,-40.99183 0.45642,-59.61604 1.51808,-61.94614 2.80857,-6.16414 8.19756,-7.46033 31.01676,-7.46033 l 20.7985,0 v -15.18506 -15.18506 l -19,-0.64116 c -21.12322,-0.71281 -29.71059,-2.58274 -44.48493,-9.68675 -39.27839,-18.88642 -60.94908,-59.67357 -56.305,-105.97357 2.32322,-23.16169 4.61957,-25.85887 24.59,-28.882229 35.82957,-5.424292 69.67142,5.683079 93.65023,30.737339 7.89577,8.2499 10.88303,9.78032 10.88303,5.57554 0,-0.96263 2.89704,-6.17722 6.43787,-11.58798 11.86145,-18.12554 29.3314,-31.277868 50.67327,-38.149583 19.3933,-6.244311 54.45427,-5.374728 62.50503,1.550251 7.22677,6.216202 9.63783,38.225412 4.42616,58.761592 -11.28523,44.46856 -50.29029,73.14181 -96.72602,71.10486 l -9.98918,-0.43819 0.003,29 0.003,29 19.9132,0 c 21.08216,0 24.81931,0.7021 29.29209,5.50307 2.75103,2.95288 2.79471,3.93194 2.79471,62.64182 v 59.64206 l 56.87966,98.43987 c 31.28382,54.14192 58.73382,102.33986 61.00001,107.10653 3.71243,7.80868 4.12033,9.92748 4.12033,21.40248 0,12.02025 -0.27978,13.30192 -4.97962,22.81141 -5.99751,12.13512 -13.71834,19.69409 -26.11423,25.56675 l -8.90615,4.21936 -145.33334,0.21389 c -81.83449,0.12044 -147.5203,-0.30787 -150.33877,-0.98029 z M 484.19713,654.4501 c 2.84525,-0.85246 7.27162,-3.5879 9.83638,-6.07877 6.36708,-6.18363 8.96944,-12.8098 8.31383,-21.16881 -0.46909,-5.98099 -3.89513,-12.62752 -28.52228,-55.33333 l -27.98915,-48.53584 -45.49847,-0.35074 -45.49847,-0.35073 -0.41948,23.25777 c -0.37934,21.03233 -0.6824,23.60947 -3.16727,26.93333 -5.23992,7.00913 -14.01999,7.41604 -20.03252,0.92842 -3.15427,-3.40352 -3.21969,-3.95818 -3.21969,-27.29669 v -23.82258 l -46.17453,0.35061 -46.17452,0.35061 -26.62317,46 c -14.64275,25.3 -27.46421,48.32544 -28.49215,51.16764 -2.70775,7.48682 -2.31486,12.74731 1.52799,20.45891 3.43509,6.89334 7.31606,10.42056 14.60304,13.27202 5.71306,2.23556 280.10211,2.44377 287.53046,0.21818 z M 310.36686,632.58828 c -4.59723,-2.49483 -6.36685,-5.80082 -6.36685,-11.89455 0,-8.6771 9.26303,-14.70321 17.41232,-11.32766 5.23052,2.16655 7.92101,6.13552 7.92101,11.68495 0,5.85657 -1.87914,9.13994 -6.63998,11.60186 -4.81163,2.4882 -7.64985,2.47332 -12.3265,-0.0646 z m -70.91499,-24.69056 c -7.50845,-8.92329 -2.12737,-21.23104 9.28244,-21.23104 7.77651,0 12.59903,4.84841 12.59903,12.66667 0,7.87598 -4.81462,12.66667 -12.72996,12.66667 -4.7277,0 -6.2883,-0.69956 -9.15151,-4.1023 z m 167.88148,-30.44105 c -8.49697,-3.63852 -10.7438,-14.65226 -4.30303,-21.09302 5.42438,-5.42438 13.23872,-5.13295 18.43947,0.68771 4.99662,5.59218 5.06118,10.92547 0.19689,16.26426 -3.89662,4.27674 -9.93945,6.02257 -14.33333,4.14105 z M 328.00001,398.66668 v -97.33334 h -13.29088 -13.29088 l -0.37579,55 -0.37578,55.00001 -24.33334,41.82614 c -13.38333,23.00437 -24.33333,42.05437 -24.33333,42.33333 0,0.27896 17.1,0.50719 38,0.50719 h 38 z m 101.33334,96.67893 c 0,-0.35992 -9.99287,-17.90992 -22.20638,-39 -12.21351,-21.09008 -23.30034,-40.7456 -24.63739,-43.67893 -2.2205,-4.87152 -2.43354,-9.92263 -2.46029,-58.33334 l -0.0293,-53 h -12.66667 -12.66666 v 97.33334 97.33333 h 37.33333 c 20.53334,0 37.33334,-0.29448 37.33334,-0.6544 z M 322.22722,217.35155 c 4.21575,-0.0182 4.22972,-0.0417 5.15455,-8.67762 0.6147,-5.74 0.23207,-12.78287 -1.13493,-20.89023 -6.00733,-35.62786 -32.64252,-59.89814 -69.38901,-63.22802 -5.45645,-0.49445 -12.63712,-0.49166 -15.95703,0.006 l -6.0362,0.90518 -0.88865,8.2981 c -2.23005,20.82392 7.05729,47.05475 21.92404,61.92151 8.16224,8.16223 21.62327,16.15712 32.10002,19.06511 6.95171,1.92956 23.43874,3.79796 27.33333,3.09755 1.46667,-0.26376 4.56891,-0.48776 6.89388,-0.49777 z m 62.0405,-28.14751 c 17.13897,-3.54789 34.94193,-15.88838 43.16573,-29.92123 7.82644,-13.35482 12.08639,-31.32344 10.478,-44.1966 L 437.02608,108 h -11.56623 c -21.16733,0 -37.11686,6.15899 -50.51508,19.50665 -12.79118,12.74292 -20.32007,31.79536 -20.25989,51.26924 0.036,11.65008 0.28037,11.89078 12.07168,11.89078 5.74504,0 13.62506,-0.65818 17.51116,-1.46263 z M 128.99457,545.30072 c -14.44582,-3.64012 -27.936,-15.41987 -32.922898,-28.74855 -3.895826,-10.41253 -3.6771,-24.11484 0.549024,-34.39407 l 3.224065,-7.8419 -6.339674,-9.49143 C 70.692791,430.67141 55.760712,394.38073 48.179697,354.66668 44.938923,337.6895 41.962802,303.50332 43.166863,297.08512 c 1.981373,-10.56163 14.366427,-14.82455 21.716263,-7.47471 2.857536,2.85753 3.644237,5.06177 4.0341,11.30303 2.636123,42.2013 8.0887,69.3287 19.798226,98.4992 10.141225,25.26358 29.932868,58.7247 33.846338,57.22296 17.48647,-6.71019 38.35039,-1.57743 51.06303,12.56208 20.75777,23.08764 13.1619,60.07549 -14.92576,72.68049 -8.80056,3.94945 -21.71046,5.43693 -29.70449,3.42255 z m 21.4087,-28.90314 c 5.97601,-4.46174 8.49287,-8.97164 8.58993,-15.39208 0.30491,-20.16908 -24.86157,-28.43156 -35.96662,-11.80831 -6.33642,9.48505 -2.65518,23.18994 7.66667,28.54223 5.70517,2.95836 14.77764,2.34071 19.71002,-1.34184 z m 398.82752,-34.96167 c -9.81502,-9.81502 0.0487,-25.90291 13.09334,-21.35552 13.24067,4.61572 9.70692,25.25296 -4.32411,25.25296 -3.60684,0 -5.88376,-1.01197 -8.76923,-3.89744 z m 43.27982,-50.16 c -4.26795,-2.16058 -7.17726,-6.75038 -7.17726,-11.32302 0,-1.42358 2.18261,-7.84535 4.85024,-14.2706 7.5545,-18.19576 12.21862,-32.89526 15.74633,-49.62635 13.24574,-62.82128 4.69609,-126.51367 -24.43799,-182.05593 -10.99161,-20.9548 -20.1013,-34.30729 -22.72036,-33.30226 -17.48648,6.71019 -38.3504,1.57743 -51.06303,-12.56208 -20.83421,-23.17265 -13.14758,-59.940163 15.23616,-72.879259 7.00243,-3.192147 10.15131,-3.824072 19.05532,-3.824072 8.87724,0 12.05847,0.634584 18.96316,3.782719 10.86475,4.95369 20.2718,14.823587 24.29016,25.485294 3.93769,10.447667 3.46042,27.600878 -1.00819,36.234168 l -2.89918,5.60118 9.39514,14.39882 c 48.92228,74.97739 61.13679,170.63806 32.63661,255.60095 -6.88787,20.53367 -12.7649,33.89334 -16.3288,37.11862 -3.74166,3.38616 -9.73285,4.05451 -14.53831,1.62182 z M 553.06995,113.7309 c 6.31913,-4.71791 8.57109,-8.99024 8.57109,-16.26071 0,-20.023975 -25.9695,-27.449083 -36.36636,-10.397742 -5.76142,9.448994 -1.89968,22.822712 8.08525,28.000292 5.70517,2.95836 14.77764,2.34071 19.71002,-1.34184 z M 53.813766,254.05311 c -3.744381,-2.62267 -6.312004,-9.21978 -5.244213,-13.4742 0.479397,-1.91007 2.434979,-4.92171 4.345737,-6.69254 9.702613,-8.99208 25.448038,1.97016 20.385329,14.19262 -2.197514,5.30527 -6.149456,7.92102 -11.967284,7.92102 -2.606991,0 -5.990797,-0.87611 -7.519569,-1.9469 z M 125.39632,141.16684 c -6.39922,-1.92267 -17.84667,-9.75593 -21.75037,-14.88335 -7.911796,-10.39195 -9.610826,-15.50023 -9.628913,-28.950154 -0.01471,-10.936374 0.465255,-13.695365 3.513581,-20.197282 4.496122,-9.589993 12.682112,-17.77598 22.272102,-22.272104 6.41286,-3.006574 9.32782,-3.530615 19.63888,-3.530615 9.89967,0 13.32039,0.567729 18.75354,3.11248 l 6.64528,3.112481 11.91312,-8.009848 C 229.66131,13.97566 297.94325,-3.9008042 361.78944,1.1053696 c 26.45638,2.0744426 59.50752,8.5467738 68.66148,13.4458284 7.73482,4.139547 9.19221,14.010815 2.98499,20.218034 -4.70342,4.703422 -8.9296,4.961827 -22.12936,1.353073 -72.96415,-19.94806 -154.29285,-7.310626 -217.31232,33.767541 -11.42449,7.44686 -11.51487,7.549251 -10.42598,11.811069 0.60413,2.364498 1.07336,9.699088 1.04272,16.299088 -0.0667,14.372717 -3.09792,21.929597 -12.56839,31.333337 -9.3564,9.29047 -17.16847,12.5787 -30.70924,12.92601 -6.23334,0.15988 -13.405,-0.33175 -15.93702,-1.09251 z m 25.93937,-28.3791 c 4.57534,-2.99788 7.5532,-9.3884 7.5532,-16.209237 0,-11.348644 -8.0992,-19.252057 -19.71293,-19.236382 -11.5707,0.01562 -19.15839,7.669111 -19.15839,19.324549 0,16.3856 17.31306,25.29754 31.31812,16.12107 z"
       id="path1" />
  </g>
</svg>
