<?xml version="1.0" encoding="UTF-8" standalone="no"?>
<!-- Created with Inkscape (http://www.inkscape.org/) -->

<svg
   version="1.1"
   id="svg1"
   width="137.14285"
   height="137.14285"
   viewBox="0 0 137.14285 137.14285"
   xmlns="http://www.w3.org/2000/svg"
   xmlns:svg="http://www.w3.org/2000/svg">
  <defs
     id="defs1" />
  <g
     id="g1">
    <path
       style="fill:#b3a3ff;stroke-width:3"
       d="m 35.111765,119.41457 c -5.188866,-1.12719 -8.969771,-6.1753 -8.548353,-11.41341 0.06392,-0.79438 0.291349,-1.96115 0.505424,-2.59283 0.214072,-0.63168 6.318393,-12.486267 13.565157,-26.343533 L 53.809927,53.86977 V 40.321999 26.774228 h -0.85405 c -2.238577,0 -3.976617,-0.954827 -4.820471,-2.648223 -1.308784,-2.626387 0.184386,-5.882477 2.996671,-6.534707 1.027263,-0.238245 33.846762,-0.238245 34.874025,0 2.812282,0.65223 4.305452,3.90832 2.996672,6.534707 -0.84386,1.693396 -2.581895,2.648223 -4.820472,2.648223 H 83.32825 v 13.550458 13.55046 l 11.294424,21.602273 c 6.211926,11.88125 12.141576,23.217802 13.176986,25.192341 1.03541,1.97453 2.05724,4.10689 2.27073,4.73857 2.0276,5.99918 -1.85295,12.68355 -8.13625,14.01497 -1.957606,0.41481 -64.910514,0.40659 -66.822375,-0.009 z m 66.678075,-5.2175 c 1.31798,-0.44908 2.89373,-2.02483 3.34282,-3.34282 0.38898,-1.14159 0.43529,-2.95146 0.10036,-3.92198 -0.21227,-0.61508 -4.14404,-8.176049 -21.378549,-41.111905 L 78.1426,54.904747 V 40.839487 26.774228 h -9.57351 -9.57351 v 14.066999 14.066997 l -5.711736,10.91388 c -17.092613,32.660247 -21.166989,40.494956 -21.37901,41.110166 -0.334623,0.97097 -0.288161,2.78078 0.100682,3.92198 0.429631,1.2609 2.031237,2.89671 3.261154,3.3308 0.79794,0.28163 4.303821,0.31652 33.217025,0.33061 29.746339,0.0145 32.403195,-0.0109 33.306135,-0.31859 z m -64.623645,-5.23373 c -0.101409,-0.16408 18.040098,-35.140317 18.472615,-35.614608 0.420973,-0.461634 3.618787,0.671213 7.844353,2.778915 5.10791,2.547813 6.444821,2.981171 8.843166,2.866504 1.434228,-0.06857 1.975073,-0.195511 3.124284,-0.733292 1.652153,-0.773137 3.062644,-1.807463 4.83617,-3.546416 0.717114,-0.703135 1.32238,-1.253947 1.345034,-1.224028 0.456819,0.603312 18.419053,35.345265 18.340167,35.472925 -0.15186,0.24571 -62.65393,0.24571 -62.805789,0 z M 74.86952,96.481453 c 1.123829,-0.658609 1.967743,-1.807266 2.278014,-3.100623 0.414628,-1.728359 -0.163906,-3.404362 -1.59923,-4.632946 -2.915272,-2.495364 -7.460784,-0.591984 -7.737978,3.240188 -0.105408,1.457174 0.212131,2.433843 1.116881,3.435292 1.623356,1.796862 3.968999,2.214528 5.942313,1.058089 z M 63.784363,86.758252 c 1.102797,-0.750559 1.493832,-1.442324 1.493832,-2.642688 0,-0.770938 -0.115967,-1.224232 -0.417234,-1.630822 -1.447645,-1.953765 -3.897671,-1.958143 -5.341299,-0.0096 -0.295949,0.399468 -0.410112,0.856101 -0.410112,1.640362 0,1.220354 0.375697,1.891387 1.479586,2.642688 0.453045,0.30834 0.952945,0.448757 1.597613,0.448757 0.644669,0 1.144568,-0.140413 1.597614,-0.448757 z m 5.606751,-11.460271 c -1.377038,-0.678378 -1.911901,-2.320275 -1.220867,-3.747761 0.961211,-1.985596 3.389351,-2.241306 4.845875,-0.510325 0.430323,0.511408 0.539171,0.844314 0.539171,1.649024 0,2.29472 -2.113829,3.619136 -4.164179,2.609062 z m -6.329163,-9.427946 c -0.715728,-0.289186 -1.274099,-1.183515 -1.274099,-2.040695 0,-1.570864 1.87393,-2.533308 3.167861,-1.627003 1.293274,0.905844 1.134904,2.88118 -0.285015,3.554975 -0.722668,0.342929 -0.992246,0.361817 -1.608747,0.112723 z m 6.404654,-5.220487 c -0.643888,-0.352179 -0.897516,-0.795301 -0.897516,-1.568077 0,-0.922597 0.660996,-1.592232 1.571689,-1.592232 0.918132,0 1.353919,0.292303 1.614945,1.083222 0.27929,0.846257 -0.08919,1.705428 -0.887408,2.069118 -0.635764,0.289674 -0.884087,0.291086 -1.40171,0.008 z"
       id="path1" />
  </g>
</svg>
