<?xml version="1.0" encoding="UTF-8" standalone="no"?>
<!-- Created with Inkscape (http://www.inkscape.org/) -->

<svg
   version="1.1"
   id="svg1"
   width="103.91543"
   height="103.91543"
   viewBox="0 0 103.91543 103.91543"
   xmlns="http://www.w3.org/2000/svg"
   xmlns:svg="http://www.w3.org/2000/svg">
  <defs
     id="defs1" />
  <g
     id="g1">
    <path
       style="fill:#b3a3ff;stroke-width:3"
       d="M 10.147991,85.75155 C 6.3849619,84.98652 3.6731633,83.302503 1.8442428,80.594953 0.98188451,79.31831 -0.05853883,76.868229 0.0413774,76.349406 0.10266419,76.031169 3.5616699,76.008453 51.957714,76.008453 c 48.396046,0 51.855046,0.02272 51.916336,0.340953 0.10014,0.519976 -0.94127,2.970045 -1.80747,4.252332 -1.55941,2.308487 -4.173347,4.093581 -7.284344,4.974578 -1.25955,0.35669 -3.17419,0.375173 -42.317122,0.408515 C 19.178037,86.013186 11.21911,85.969311 10.147991,85.75155 Z M 59.670187,80.980968 V 79.15433 h -7.712473 -7.712473 v 1.826638 1.826639 h 7.712473 7.712473 z M 9.7220209,71.420393 9.1331919,70.790049 V 45.146646 c 0,-18.0057 0.065601,-25.787382 0.2202545,-26.126809 0.12114,-0.265874 0.4777265,-0.635499 0.7924146,-0.82139 0.528769,-0.312351 3.699657,-0.337983 41.811853,-0.337983 38.112196,0 41.283084,0.02563 41.811853,0.337983 0.314688,0.185891 0.671275,0.555516 0.792415,0.82139 0.154653,0.339427 0.220254,8.121109 0.220254,26.126809 l 0,25.643403 -0.588829,0.630344 -0.588829,0.630343 H 51.957714 10.31085 Z M 87.425952,45.00634 l 0.05175,-19.636362 -35.518978,0 -35.518979,0 v 19.551796 c 0,10.753487 0.06114,19.612939 0.135875,19.687671 0.07473,0.07473 16.034985,0.112786 35.467229,0.08457 l 35.331354,-0.05131 z"
       id="path1" />
  </g>
</svg>
