<?xml version="1.0" encoding="UTF-8" standalone="no"?>
<!-- Created with Inkscape (http://www.inkscape.org/) -->

<svg
   version="1.1"
   id="svg1"
   width="736"
   height="625.33331"
   viewBox="0 0 736 625.33331"
   xmlns="http://www.w3.org/2000/svg"
   xmlns:svg="http://www.w3.org/2000/svg">
  <defs
     id="defs1" />
  <g
     id="g1">
    <path
       style="fill:#b3a3ff"
       d="m 613.77165,620.71201 c -8.13599,-3.51802 -8.58131,-7.19751 -3.79772,-31.3787 1.81338,-9.16666 3.31108,-18.37598 3.32822,-20.46516 0.0434,-5.28743 -3.52829,-12.25694 -7.75035,-15.12342 -3.3476,-2.27278 -10.87228,-2.44974 -130.88513,-3.07808 l -127.33334,-0.66667 -7.71277,-3.11305 c -10.80045,-4.3593 -22.41143,-15.43694 -27.93029,-26.64734 l -4.35694,-8.8502 V 397.99999 284.61058 l 4.36958,-8.87587 c 7.62516,-15.4889 21.15638,-25.97672 37.47908,-29.0494 9.68555,-1.82327 330.47878,-1.85302 340.0834,-0.0315 20.67355,3.92066 37.5006,20.77801 41.43163,41.50626 1.88416,9.93514 1.73437,210.96425 -0.164,220.10766 -1.90607,9.18047 -11.33128,26.53974 -21.05004,38.76977 -9.81633,12.35281 -28.89561,30.06624 -53.48298,49.65423 -21.16625,16.86248 -31.23781,24.02557 -35.33333,25.12973 -1.46667,0.39542 -4.56943,-0.10382 -6.89502,-1.10941 z M 463.44414,496.5247 c 5.8367,-2.76969 7.79571,-6.23272 17.84727,-31.54936 l 8.3475,-21.02464 30.09922,0.35798 30.09922,0.35797 9.04393,22.52036 c 4.97416,12.3862 10.10934,23.69762 11.41151,25.1365 10.9005,12.04492 30.57954,5.51307 31.97572,-10.61335 0.50395,-5.82078 -2.35803,-13.63379 -32.82053,-89.59788 -23.41369,-58.38654 -34.44828,-84.34379 -36.97718,-86.9834 -6.33765,-6.61508 -19.01267,-6.35807 -25.47097,0.51648 -2.58734,2.7541 -31.43101,71.79947 -59.95732,143.5246 -9.16305,23.0391 -11.19198,29.39237 -10.58366,33.14102 2.11399,13.027 15.08668,19.85998 26.98529,14.21372 z m 47.99678,-107.33162 c 3.97416,-9.61046 7.24399,-17.86046 7.26629,-18.33333 0.0883,-1.87294 3.28464,4.94946 9.37611,20.01294 l 6.38687,15.79396 h -15.12751 -15.1275 z M 92.032441,369.30804 C 54.138899,340.60953 27.935579,315.74507 15.191359,296.39317 0.80337069,274.54524 2.0590401,286.70647 1.5903501,164.66666 1.161859,53.094047 1.3645369,48.244309 6.9526398,36.356132 13.448671,22.53642 28.71284,11.079739 44.666667,8.049476 50.459309,6.9492239 98.653292,6.6407925 219.33333,6.9316461 L 386,7.3333331 l 7.66221,3.0941319 c 8.91841,3.601407 20.91373,14.001048 25.83469,22.398025 7.00567,11.954267 7.13687,13.740738 7.15394,97.4086 l 0.0158,77.56743 -42.33334,0.489 c -42.01577,0.48533 -42.41586,0.51652 -53.33585,4.15804 -6.71431,2.23904 -15.28033,6.53234 -21.97835,11.01558 -9.98145,6.68097 -11.27977,7.20235 -14.33081,5.75503 -1.84524,-0.87533 -9.05499,-2.06825 -16.02165,-2.65093 -6.96667,-0.58268 -16.72162,-2.32454 -21.67766,-3.8708 l -9.011,-2.81139 5.16337,-7.60969 c 11.63421,-17.14632 20.99385,-40.56329 24.22539,-60.6097 l 1.66576,-10.33333 5.19323,0 c 11.89123,0 21.10757,-7.93304 21.10757,-18.16851 0,-7.48643 -2.89823,-13.19869 -8.39806,-16.55214 -3.89525,-2.37507 -6.86343,-2.60315 -33.93527,-2.6077 L 233.33333,104 l 0,-16.798497 c 0,-12.66469 -0.52709,-17.909264 -2.14195,-21.312316 -6.21796,-13.103397 -26.83146,-13.103397 -33.04943,0 C 196.52709,69.292239 196,74.536813 196,87.201503 V 104 l -29.50929,0 c -27.25906,0 -29.8409,0.20495 -33.85805,2.68768 -8.44963,5.22216 -11.09523,17.23172 -5.60608,25.44847 6.10164,9.13361 6.50485,9.1928 62.64009,9.19511 l 50.33333,0.002 0,3.0268 c 0,9.82825 -10.39078,36.09769 -18.72851,47.34847 -3.53829,4.7745 -4.55681,5.43781 -6.22455,4.05371 -3.90102,-3.23756 -12.74126,-17.54019 -18.46913,-29.88124 -6.54158,-14.09424 -10.74959,-17.87111 -19.91114,-17.87111 -9.15712,0 -16.6879,6.27619 -18.60931,15.50908 -1.61685,7.76945 13.98597,40.39115 24.93948,52.14236 1.5353,1.64711 2.53033,3.25586 2.21119,3.57501 -1.917,1.917 -22.38095,6.26066 -32.54136,6.90721 -15.13665,0.96321 -19.7427,2.37334 -23.90331,7.31796 -6.55018,7.78443 -5.71134,18.57501 2.02002,25.98515 3.77107,3.6144 4.9072,3.91989 16.22223,4.36204 19.87782,0.77674 43.56633,-4.36959 61.34685,-13.32762 l 7.68579,-3.87219 11.15181,5.39779 c 11.94276,5.78063 33.86194,11.99324 42.31424,11.99324 5.89073,0 5.88597,-0.0136 3.06345,8.78809 -1.1654,3.63414 -2.4315,13.80976 -2.84668,22.87858 l -0.74776,16.33333 h -67.99594 c -65.84604,0 -68.13345,0.085 -72.34471,2.68768 -4.88357,3.01821 -8.64831,9.80839 -8.60148,15.51382 0.0172,2.08918 1.51485,11.2985 3.32822,20.46517 1.81338,9.16666 3.29935,18.64393 3.30216,21.0606 0.007,6.28688 -4.99649,10.93939 -11.76537,10.93939 -4.55644,0 -7.48203,-1.70933 -22.863749,-13.35861 z"
       id="path1" />
  </g>
</svg>
