<?xml version="1.0" encoding="UTF-8" standalone="no"?>
<!-- Created with Inkscape (http://www.inkscape.org/) -->

<svg
   version="1.1"
   id="svg1"
   width="195.84"
   height="195.84"
   viewBox="0 0 195.84 195.84"
   xmlns="http://www.w3.org/2000/svg"
   xmlns:svg="http://www.w3.org/2000/svg">
  <defs
     id="defs1" />
  <g
     id="g1">
    <path
       style="fill:#b3a3ff;stroke-width:3"
       d="m 95.010231,194.62474 c -1.033254,-1.14306 -1.140264,-4.991 -1.140264,-41.002 0,-23.44349 -0.259919,-39.90138 -0.633816,-40.13275 -0.3486,-0.21569 -1.295378,0.46441 -2.103955,1.51134 -0.808575,1.04694 -4.011352,4.49836 -7.117282,7.66986 -19.84885,20.26782 -46.855582,32.86144 -75.0860608,35.01371 -4.9619592,0.37828 -5.8625983,0.267 -7.2969738,-0.90172 -2.17583921,-1.77285 -2.17583921,-4.8373 0,-6.51246 1.2173232,-0.9372 2.8713519,-1.26558 6.4592499,-1.2824 5.6589817,-0.0265 18.0919977,-2.44436 26.8704797,-5.22553 8.020608,-2.54106 21.461957,-9.34823 28.655041,-14.5119 6.285651,-4.51226 14.953575,-12.40636 19.206206,-17.49161 l 2.772466,-3.3153 -1.777969,-3.18484 -1.777968,-3.18487 -39.730076,-0.0219 c -43.26804739,-0.0239 -42.14152621,0.0807 -42.14152621,-3.913511 0,-4.513671 -1.66932639,-4.342076 42.24068021,-4.342076 h 39.720725 l 1.391556,-2.730867 c 1.673499,-3.28417 4.277628,-5.858543 7.765523,-7.67678 l 2.5837,-1.346882 v -29.991996 -29.992 h -2.705939 c -2.10264,0 -3.024314,-0.405221 -4.133921,-1.817509 -0.785388,-0.99963 -1.42798,-2.143562 -1.42798,-2.542071 0,-1.040234 7.552223,-14.3150449 9.19466,-16.1617796 1.933662,-2.17418419 4.79856,-2.02568456 6.653853,0.3448967 1.83011,2.3384219 8.95501,14.9741449 8.95501,15.8813779 0,0.363038 -0.64259,1.477946 -1.42799,2.477576 -1.10959,1.412288 -2.03128,1.817509 -4.13392,1.817509 h -2.70593 v 29.96531 c 0,17.493913 0.26379,30.128536 0.6338,30.357491 0.34861,0.215698 1.29674,-0.464399 2.10695,-1.511327 3.13982,-4.057134 13.01655,-13.641235 18.27334,-17.731947 18.2637,-14.212392 40.83037,-23.109822 63.19348,-24.915499 7.33475,-0.592238 9.49462,0.344155 9.49462,4.116322 0,1.272653 -0.42336,2.665675 -0.94079,3.095601 -0.51741,0.429929 -4.16042,1.086519 -8.0956,1.459086 -29.04727,2.750113 -56.09555,16.348631 -73.02946,36.715555 l -3.28655,3.952832 1.7404,3.117553 1.74038,3.117554 h 29.91204 29.912 v -2.709108 c 0,-2.105102 0.40474,-3.027856 1.81538,-4.138761 0.99847,-0.78631 2.16113,-1.426397 2.5837,-1.422416 0.42258,0.0038 4.48886,2.141238 9.03617,4.749464 7.82608,4.48885 8.27881,4.868117 8.47349,7.098403 0.1406,1.609864 -0.18688,2.687399 -1.03347,3.401879 -1.56668,1.32209 -9.1845,5.96458 -13.44004,8.19072 l -3.24411,1.697 -1.9233,-1.43216 c -1.47212,-1.09619 -1.97303,-2.10374 -2.13518,-4.29483 l -0.21187,-2.86267 h -29.9136 -29.91363 l -1.06405,2.06008 c -1.6886,3.26923 -5.16002,6.87297 -8.03516,8.34147 l -2.64894,1.35299 v 39.8871 c 0,37.76594 -0.067,39.9478 -1.25998,41.02868 -1.664019,1.50768 -4.447826,1.45081 -5.867599,-0.11982 z m 8.414389,-91.45587 c 1.47077,-1.47249 1.81363,-2.46182 1.81363,-5.233359 0,-4.458417 -2.20446,-6.888542 -6.71007,-7.396985 -2.711995,-0.306039 -3.364064,-0.09631 -5.420743,1.743481 -2.086396,1.866379 -2.33791,2.474585 -2.33791,5.653504 0,3.178919 0.251514,3.787119 2.33791,5.653509 2.056679,1.83979 2.708748,2.04951 5.420743,1.74348 2.09596,-0.23652 3.66341,-0.92914 4.89644,-2.16363 z m 23.90026,77.3884 c -1.47279,-2.10519 -1.34453,-3.67785 0.43535,-5.33801 1.4329,-1.33649 2.35214,-1.40645 18.48255,-1.40645 16.85254,0 16.98542,0.0109 18.47271,1.59648 1.86348,1.9859 1.89826,3.52121 0.12022,5.30145 -1.30576,1.3073 -2.29663,1.3796 -18.90808,1.3796 -17.33404,0 -17.54207,-0.0172 -18.60264,-1.53307 z m 0.30544,-23.29951 c -1.65538,-1.65731 -1.74897,-3.3015 -0.30544,-5.36486 1.06057,-1.51594 1.2686,-1.53307 18.60264,-1.53307 16.61145,0 17.60232,0.0721 18.90808,1.37958 0.75788,0.75878 1.37797,2.00041 1.37797,2.75918 0,0.75878 -0.62009,2.00039 -1.37797,2.75917 -1.30449,1.306 -2.29663,1.3796 -18.60264,1.3796 -16.30603,0 -17.29818,-0.0735 -18.60264,-1.3796 z m 0.27858,-23.67966 c -1.47273,-1.26827 -1.77056,-1.98387 -1.41537,-3.40073 0.9848,-3.92835 1.14198,-3.96032 19.47546,-3.96032 h 16.86228 l 1.69114,1.69312 c 0.93013,0.93122 1.69116,2.18697 1.69116,2.79054 0,0.60357 -0.76103,1.8593 -1.69116,2.79052 l -1.69114,1.69314 H 146.3027 c -16.3128,0 -16.55293,-0.0216 -18.3938,-1.60627 z M 14.114776,73.813567 C 12.375203,71.944168 0.16778279,43.929342 0.16778279,41.80659 c 0,-3.294877 3.68652001,-5.02662 6.42808191,-3.019595 0.9721257,0.711668 5.5764493,10.289917 8.9522613,18.623145 0.422649,1.043313 0.942551,1.896932 1.155337,1.896932 0.212789,0 0.729107,-0.853619 1.147381,-1.896932 3.951139,-9.855415 14.323196,-32.432112 15.211248,-33.110093 0.834608,-0.637179 5.670763,-0.862242 18.527814,-0.862242 17.197971,0 17.410762,0.01768 18.470952,1.533071 1.330941,1.902408 1.357987,3.330279 0.09586,5.060576 -0.902321,1.237022 -2.148332,1.365241 -16.363433,1.683876 l -15.386741,0.344897 -8.956827,20.166628 c -4.926254,11.091646 -9.496369,20.791867 -10.15581,21.556048 -1.520466,1.761965 -3.556846,1.774023 -5.179129,0.03067 z m 29.762406,-4.470714 c -1.428025,-2.181994 -0.828596,-4.005402 2.233867,-6.79522 3.991034,-3.635714 4.030579,-4.121705 0.610102,-7.497815 -3.772574,-3.723641 -4.512177,-6.102673 -2.517929,-8.099256 2.250525,-2.253161 4.451993,-1.80583 8.135102,1.653021 1.811088,1.700811 3.602928,3.087484 3.981871,3.081494 0.378943,-0.006 2.080047,-1.397563 3.780235,-3.092383 3.649453,-3.637937 6.216794,-4.075443 7.992605,-1.362038 1.55635,2.378073 0.883055,4.304114 -2.753502,7.876726 l -3.097614,3.043143 3.412265,3.737933 c 3.653234,4.0019 4.224449,6.126025 2.152285,8.003503 -2.213835,2.00584 -4.659185,1.411757 -8.077866,-1.962471 -1.729727,-1.707239 -3.372217,-3.104072 -3.649973,-3.104072 -0.277757,0 -1.874294,1.396833 -3.547861,3.104072 -3.657167,3.730746 -6.800918,4.244204 -8.653587,1.413363 z"
       id="path1" />
  </g>
</svg>
