<?xml version="1.0" encoding="UTF-8" standalone="no"?>
<!-- Created with Inkscape (http://www.inkscape.org/) -->

<svg
   version="1.1"
   id="svg1"
   width="592.19275"
   height="592.19275"
   viewBox="0 0 592.19275 592.19275"
   xmlns="http://www.w3.org/2000/svg"
   xmlns:svg="http://www.w3.org/2000/svg">
  <defs
     id="defs1" />
  <g
     id="g1">
    <path
       style="fill:#b3a3ff;stroke-width:3"
       d="m 282.30382,591.01494 c -35.25422,-7.46609 -65.28306,-35.516 -89.12966,-83.25592 -3.33649,-6.67952 -6.13669,-12.21554 -6.22267,-12.30227 -0.086,-0.0867 -6.66234,0.54067 -14.61415,1.39423 -74.195978,7.96427 -124.289606,-16.90496 -136.031104,-67.53331 -2.035633,-8.77747 -2.236452,-29.6674 -0.384025,-39.94756 3.933409,-21.8287 17.657433,-53.14054 34.051395,-77.68943 5.408491,-8.09886 9.83362,-15.1118 9.83362,-15.58431 0,-0.4725 -4.415184,-7.47054 -9.811521,-15.55121 C 53.4875,255.8252 39.879846,224.78578 35.922211,202.82263 c -0.704161,-3.90778 -1.295817,-12.813 -1.314791,-19.78936 -0.170855,-62.82074 53.150945,-96.77029 137.72992,-87.6915 7.95181,0.853555 14.51725,1.480957 14.58987,1.394229 0.0726,-0.08673 3.13502,-6.062192 6.80534,-13.278805 22.40848,-44.059797 48.60702,-70.175944 80.4171,-80.1642122 12.75887,-4.00624636 32.65818,-3.77698403 45.65757,0.5260261 30.07596,9.9556361 55.59844,35.7171201 78.14797,78.8797841 3.98811,7.633735 7.29414,13.927323 7.34674,13.985753 0.0526,0.05843 6.60167,-0.561683 14.55348,-1.378028 26.42818,-2.713156 51.98981,-1.213712 71.71084,4.206556 32.99135,9.067577 55.96925,31.026107 63.68789,60.862497 2.91108,11.25279 3.16801,31.85479 0.55501,44.50511 -5.21303,25.23789 -17.7205,52.31397 -37.1938,80.5169 l -7.38721,10.69879 7.40578,10.6988 c 27.02846,39.04681 39.94652,75.00596 38.5385,107.2771 -0.884,20.26069 -6.49502,35.26651 -18.8037,50.28763 -4.7707,5.82202 -18.11272,16.27209 -25.70313,20.13186 -22.28514,11.33213 -55.82961,16.14372 -89.50691,12.83878 -6.58789,-0.6465 -13.3413,-1.2971 -15.00759,-1.44578 -2.76961,-0.24712 -3.65168,0.9161 -10.27798,13.55392 -22.80154,43.48762 -46.84142,67.95803 -76.96175,78.34007 -10.88966,3.7535 -28.99763,5.27136 -38.60754,3.23619 z m 30.3132,-28.21803 c 21.0241,-7.41413 42.89873,-29.97005 60.28932,-62.16703 2.97688,-5.51139 4.98431,-10.28534 4.46097,-10.60879 -0.52334,-0.32344 -5.36075,-1.70469 -10.74979,-3.06944 -13.76119,-3.48496 -45.3451,-14.21191 -57.97968,-19.69183 -5.84492,-2.53508 -11.33925,-4.60923 -12.20964,-4.60923 -0.87038,0 -7.15653,2.29322 -13.96922,5.09605 -16.75494,6.8932 -33.78023,12.74567 -51.13369,17.57729 -7.9518,2.21398 -15.151,4.26398 -15.99822,4.55556 -1.12398,0.38683 -0.1601,3.12482 3.5656,10.1284 18.28944,34.38058 41.37872,57.37735 64.1865,63.92935 7.03613,2.02128 22.23661,1.43445 29.53785,-1.14033 z M 174.82555,470.1864 c 1.73276,-0.68579 1.64777,-1.57985 -0.91634,-9.63983 -7.07722,-22.24639 -14.6128,-54.73562 -17.82731,-76.86143 l -1.47406,-10.14617 -12.12731,-10.67311 c -6.67002,-5.8702 -19.56538,-18.41227 -28.65636,-27.87125 l -16.529054,-17.19815 -6.814989,10.37866 c -13.143895,20.01705 -23.170317,42.17672 -27.443619,60.65389 -2.789327,12.06067 -2.56635,30.5463 0.48673,40.35159 6.87929,22.09356 28.908579,36.88944 61.938382,41.60063 7.62431,1.08749 46.2905,0.62156 49.36393,-0.59483 z m 299.3913,-0.58822 c 31.54611,-6.59007 50.70631,-22.17596 55.66064,-45.27723 2.06958,-9.65013 0.64947,-30.90441 -2.85394,-42.71387 -5.36901,-18.09808 -15.18429,-38.29902 -27.67936,-56.96717 l -4.50694,-6.73357 -17.87739,18.53151 c -9.83256,10.19232 -22.73888,22.71365 -28.6807,27.82515 l -10.80331,9.29365 -1.3385,9.55902 c -3.07086,21.93096 -10.68213,55.08408 -17.32959,75.48417 -1.86516,5.72389 -3.13038,10.66847 -2.81161,10.98795 2.37855,2.38381 46.82138,2.39174 58.2207,0.0104 z m -251.83384,-9.26504 c 19.07703,-5.23074 40.1712,-12.53375 40.1712,-13.90768 0,-0.50291 -4.55422,-3.37174 -10.12048,-6.37517 -14.46938,-7.80734 -35.59255,-20.81845 -52.30041,-32.21516 -7.93149,-5.41021 -14.54106,-9.71657 -14.68793,-9.5697 -1.22737,1.22737 14.88252,60.9956 17.74403,65.83094 0.75819,1.28118 0.89109,1.25513 19.19359,-3.76323 z m 168.78484,-2.30906 c 7.50396,-21.88087 16.94448,-60.82961 14.38995,-59.36857 -0.72427,0.41423 -7.56263,5.02125 -15.19637,10.23781 -16.22226,11.08557 -36.31608,23.45961 -50.60241,31.16162 -5.56626,3.00087 -10.12048,5.86557 -10.12048,6.36598 0,2.05727 53.00046,18.73313 57.72203,18.16144 0.89411,-0.10826 2.60738,-3.05949 3.80728,-6.55828 z m -80.88502,-32.52869 c 28.96651,-14.49854 60.56079,-34.20696 87.13021,-54.3516 l 15.148,-11.48504 1.39294,-18.30143 c 1.78512,-23.45417 1.78602,-67.05592 0.002,-90.4974 l -1.39107,-18.27694 -13.41492,-10.26146 c -25.50563,-19.50998 -60.59472,-41.44097 -89.43891,-55.90013 l -13.61329,-6.82413 -15.32594,7.66693 c -28.16246,14.0885 -60.0876,34.07091 -87.73274,54.91319 l -13.41886,10.11677 -0.72831,6.74449 c -0.40057,3.70946 -1.29496,18.06496 -1.98753,31.90111 -1.19149,23.80353 -0.28908,61.13193 1.98753,82.21436 l 0.72831,6.74449 13.41886,10.07802 c 29.36049,22.05073 52.47536,36.62385 83.97307,52.94208 10.17831,5.27315 18.64415,9.60376 18.81296,9.62357 0.16882,0.0198 6.67484,-3.15128 14.45783,-7.04688 z m -28.68509,-79.05478 c -14.94497,-4.72384 -26.15574,-14.39631 -32.79228,-28.29264 -4.05134,-8.48316 -4.17896,-9.1566 -4.17896,-22.0516 0,-12.89499 0.12762,-13.56843 4.17896,-22.0516 9.04099,-18.93104 26.46137,-29.97155 47.29091,-29.97155 14.56035,0 26.65487,4.98057 36.84873,15.17443 10.19386,10.19386 15.17443,22.28838 15.17443,36.84872 0,23.70343 -14.83585,43.36894 -38.02864,50.40847 -6.50611,1.97475 -22.15394,1.93947 -28.49315,-0.0642 z m 23.56169,-26.2814 c 9.42349,-2.87031 16.33192,-13.04894 16.33192,-24.06284 0,-14.91761 -11.07784,-25.80529 -26.134,-25.68537 -22.08741,0.17592 -33.16354,27.01156 -17.92411,43.42719 7.26318,7.82377 16.14483,9.84861 27.72619,6.32102 z M 150.93975,296.21043 c 0,-33.47185 -0.20893,-37.94173 -1.73494,-37.11724 -2.09457,1.13169 -16.17446,15.72012 -27.04885,28.02583 l -7.90931,8.95036 11.56191,13.02554 c 10.03076,11.30057 23.68138,25.17013 24.7728,25.17013 0.19712,0 0.35839,-17.12458 0.35839,-38.05462 z m 315.49628,12.74427 c 5.86981,-6.60504 10.67239,-12.39128 10.67239,-12.85833 0,-1.52262 -21.15749,-24.7006 -28.6001,-31.33135 l -7.25532,-6.46388 v 37.79523 37.79524 l 7.25532,-6.46388 c 3.99043,-3.55514 12.0579,-11.868 17.92771,-18.47303 z m -322.25016,-81.34025 10.34254,-8.91566 3.16542,-19.20691 c 3.35518,-20.3583 10.10435,-48.65214 15.72006,-65.90152 2.22141,-6.82338 2.99833,-10.80811 2.25512,-11.56627 -0.68967,-0.70354 -10.96576,-1.13918 -26.23275,-1.11209 -19.41275,0.0344 -26.9967,0.48899 -33.4758,2.00637 -20.929241,4.90155 -37.919479,14.79049 -45.79383,26.65371 -6.573186,9.90292 -8.968465,18.70709 -8.979245,33.00441 -0.01828,24.25153 10.19348,52.33576 29.828305,82.0333 l 6.329717,9.57366 18.248963,-18.82667 c 10.03693,-10.35467 22.90311,-22.83872 28.5915,-27.74233 z m 357.91974,35.22891 c 18.88586,-29.14579 28.72296,-56.55424 28.74718,-80.09638 0.0182,-17.74196 -4.52191,-29.9518 -14.95688,-40.22347 -5.59858,-5.51096 -15.95192,-11.92973 -24.32966,-15.08367 -7.56071,-2.84636 -24.04263,-5.96629 -35.47725,-6.71565 -11.99558,-0.78612 -37.21241,0.33865 -39.51638,1.76259 -0.99002,0.61186 -0.57213,3.13565 1.55452,9.38825 6.54948,19.25627 13.97274,51.00473 17.30335,74.00448 l 1.75866,12.14458 8.39337,7.39378 c 4.61635,4.06658 17.5018,16.67263 28.63433,28.01344 11.13253,11.34082 20.31757,20.6353 20.4112,20.65441 0.0936,0.0191 3.45853,-5.03995 7.47756,-11.24236 z M 201.83132,183.30504 c 17.41105,-11.89091 34.92774,-22.70735 49.46322,-30.5432 6.19281,-3.33846 11.25967,-6.478 11.25967,-6.97675 0,-2.60273 -57.13435,-19.78661 -59.0345,-17.75538 -2.17162,2.32145 -11.74585,35.30928 -15.57281,53.6559 -0.98429,4.71869 -2.09221,9.55547 -2.46205,10.74838 -0.82672,2.66656 -1.36532,2.96735 16.34647,-9.12895 z m 204.63593,8.98411 c -6.40357,-28.88666 -15.56522,-61.98637 -17.7946,-64.28931 -1.95853,-2.02316 -59.03411,15.14935 -59.03411,17.76178 0,0.51843 4.55422,3.40542 10.12048,6.41552 15.82606,8.55836 39.15098,23.03946 52.99709,32.90285 6.9528,4.95289 12.9831,9.05655 13.40065,9.11925 0.41755,0.0627 0.55727,-0.79684 0.31049,-1.91009 z m -96.83524,-67.84789 c 17.00915,-6.94738 33.98255,-12.76882 51.23545,-17.57245 7.9518,-2.21397 15.15065,-4.26383 15.99744,-4.55525 1.11559,-0.38392 0.0291,-3.317207 -3.94506,-10.650618 -9.7372,-17.967902 -18.0498,-29.5431 -29.33969,-40.855171 -17.26412,-17.298033 -29.96439,-23.61643 -47.48378,-23.623232 -11.34094,-0.0044 -18.31926,1.983454 -29.1553,8.305231 -9.86675,5.75629 -27.79732,23.975866 -36.16046,36.743287 -8.67558,13.244414 -17.16793,29.189073 -15.94805,29.943003 0.51943,0.32102 5.35363,1.70029 10.74267,3.06504 14.05624,3.55969 45.48133,14.26722 57.42127,19.56528 5.61457,2.49133 11.09453,4.57606 12.17768,4.63273 1.08316,0.0567 7.58918,-2.19235 14.45783,-4.99785 z"
       id="path1" />
  </g>
</svg>
